<svg width="126" height="146" viewBox="0 0 126 146" fill="none" xmlns="http://www.w3.org/2000/svg">
<g filter="url(#filter0_d_1_38)">
<rect x="19" y="13" width="88" height="108" rx="35" fill="#E9D9FF" stroke="#3B1B6D" stroke-width="2"/>
<path d="M34.7273 64.1906C36.5287 64.1906 38.1376 64.6796 39.281 65.4445C40.4279 66.2116 41.0603 67.2172 41.0603 68.2609C41.0603 69.3044 40.4277 70.3092 39.281 71.0763C38.1376 71.8412 36.5288 72.3312 34.7273 72.3312C32.926 72.3311 31.318 71.8411 30.1746 71.0763C29.0279 70.3092 28.3953 69.3044 28.3953 68.2609C28.3953 67.2172 29.0278 66.2116 30.1746 65.4445C31.318 64.6797 32.9262 64.1906 34.7273 64.1906Z" fill="#C8FF4D" fill-opacity="0.6" stroke="#3B1B6D"/>
<path d="M62.0572 64.1906C63.8585 64.1906 65.4674 64.6796 66.6109 65.4445C67.7577 66.2116 68.3902 67.2172 68.3902 68.2609C68.3901 69.3044 67.7575 70.3092 66.6109 71.0763C65.4674 71.8412 63.8586 72.3312 62.0572 72.3312C60.2559 72.3311 58.6478 71.8411 57.5044 71.0763C56.3577 70.3092 55.7252 69.3044 55.7251 68.2609C55.7251 67.2172 56.3576 66.2116 57.5044 65.4445C58.6478 64.6797 60.256 64.1906 62.0572 64.1906Z" fill="#FFF6E8" fill-opacity="0.2" stroke="#3B1B6D"/>
<path d="M89.387 64.1906C91.1884 64.1906 92.7972 64.6796 93.9407 65.4445C95.0875 66.2116 95.72 67.2172 95.72 68.2609C95.72 69.3044 95.0874 70.3092 93.9407 71.0763C92.7972 71.8412 91.1885 72.3312 89.387 72.3312C87.5857 72.3311 85.9777 71.8411 84.8343 71.0763C83.6876 70.3092 83.055 69.3044 83.055 68.2609C83.055 67.2172 83.6874 66.2116 84.8343 65.4445C85.9776 64.6797 87.5858 64.1906 89.387 64.1906Z" fill="#FF7AD9" stroke="#3B1B6D"/>
<path d="M41.3242 79.9499C43.1256 79.9499 44.7344 80.439 45.8779 81.2038C47.0247 81.9709 47.6572 82.9766 47.6572 84.0202C47.6571 85.0637 47.0245 86.0685 45.8779 86.8356C44.7344 87.6005 43.1256 88.0905 41.3242 88.0905C39.5229 88.0904 37.9148 87.6004 36.7714 86.8356C35.6247 86.0685 34.9922 85.0637 34.9921 84.0202C34.9921 82.9766 35.6246 81.9709 36.7714 81.2038C37.9148 80.439 39.523 79.9499 41.3242 79.9499Z" fill="#FFF6E8" fill-opacity="0.2" stroke="#3B1B6D"/>
<path d="M62.0572 79.9499C63.8585 79.9499 65.4674 80.439 66.6109 81.2038C67.7577 81.9709 68.3902 82.9766 68.3902 84.0202C68.3901 85.0637 67.7575 86.0685 66.6109 86.8356C65.4674 87.6005 63.8586 88.0905 62.0572 88.0905C60.2559 88.0904 58.6478 87.6004 57.5044 86.8356C56.3577 86.0685 55.7252 85.0637 55.7251 84.0202C55.7251 82.9766 56.3576 81.9709 57.5044 81.2038C58.6478 80.439 60.256 79.9499 62.0572 79.9499Z" fill="#FFF6E8" fill-opacity="0.2" stroke="#3B1B6D"/>
<path d="M82.7901 79.9499C84.5915 79.9499 86.2004 80.439 87.3439 81.2038C88.4907 81.9709 89.1232 82.9766 89.1232 84.0202C89.1231 85.0637 88.4905 86.0685 87.3439 86.8356C86.2004 87.6005 84.5916 88.0905 82.7901 88.0905C80.9889 88.0904 79.3808 87.6004 78.2374 86.8356C77.0907 86.0685 76.4582 85.0637 76.4581 84.0202C76.4581 82.9766 77.0906 81.9709 78.2374 81.2038C79.3808 80.439 80.989 79.9499 82.7901 79.9499Z" fill="#FFF6E8" fill-opacity="0.2" stroke="#3B1B6D"/>
<path d="M41.3242 95.7092C43.1256 95.7092 44.7344 96.1983 45.8779 96.9631C47.0247 97.7302 47.6572 98.7359 47.6572 99.7795C47.6571 100.823 47.0245 101.828 45.8779 102.595C44.7344 103.36 43.1256 103.85 41.3242 103.85C39.5229 103.85 37.9148 103.36 36.7714 102.595C35.6247 101.828 34.9922 100.823 34.9921 99.7795C34.9921 98.7359 35.6246 97.7302 36.7714 96.9631C37.9148 96.1984 39.523 95.7093 41.3242 95.7092Z" fill="#FFF6E8" fill-opacity="0.2" stroke="#3B1B6D"/>
<path d="M62.0572 95.7092C63.8585 95.7092 65.4674 96.1983 66.6109 96.9631C67.7577 97.7302 68.3902 98.7359 68.3902 99.7795C68.3901 100.823 67.7575 101.828 66.6109 102.595C65.4674 103.36 63.8586 103.85 62.0572 103.85C60.2559 103.85 58.6478 103.36 57.5044 102.595C56.3577 101.828 55.7252 100.823 55.7251 99.7795C55.7251 98.7359 56.3576 97.7302 57.5044 96.9631C58.6478 96.1984 60.256 95.7093 62.0572 95.7092Z" fill="#FFF6E8" fill-opacity="0.2" stroke="#3B1B6D"/>
<path d="M82.7901 95.7092C84.5915 95.7092 86.2004 96.1983 87.3439 96.9631C88.4907 97.7302 89.1232 98.7359 89.1232 99.7795C89.1231 100.823 88.4905 101.828 87.3439 102.595C86.2004 103.36 84.5916 103.85 82.7901 103.85C80.9889 103.85 79.3808 103.36 78.2374 102.595C77.0907 101.828 76.4582 100.823 76.4581 99.7795C76.4581 98.7359 77.0906 97.7302 78.2374 96.9631C79.3808 96.1984 80.989 95.7093 82.7901 95.7092Z" fill="#FFF6E8" fill-opacity="0.2" stroke="#3B1B6D"/>
<rect x="32.6361" y="29.8353" width="60.2565" height="26.7364" rx="13.3682" fill="#FFF6E8" stroke="#3B1B6D"/>
<rect x="41.5602" y="37.8453" width="16.4921" height="1.26075" rx="0.630373" fill="#C8FF4D" fill-opacity="0.6"/>
<rect x="41.5602" y="42.5731" width="27.3298" height="1.26075" rx="0.630373" fill="#C8FF4D" fill-opacity="0.6"/>
</g>
<defs>
<filter id="filter0_d_1_38" x="0" y="0" width="126" height="146" filterUnits="userSpaceOnUse" color-interpolation-filters="sRGB">
<feFlood flood-opacity="0" result="BackgroundImageFix"/>
<feColorMatrix in="SourceAlpha" type="matrix" values="0 0 0 0 0 0 0 0 0 0 0 0 0 0 0 0 0 0 127 0" result="hardAlpha"/>
<feOffset dy="6"/>
<feGaussianBlur stdDeviation="9"/>
<feComposite in2="hardAlpha" operator="out"/>
<feColorMatrix type="matrix" values="0 0 0 0 0.231373 0 0 0 0 0.105882 0 0 0 0 0.427451 0 0 0 0.2 0"/>
<feBlend mode="normal" in2="BackgroundImageFix" result="effect1_dropShadow_1_38"/>
<feBlend mode="normal" in="SourceGraphic" in2="effect1_dropShadow_1_38" result="shape"/>
</filter>
</defs>
</svg>
