<svg width="40" height="30" viewBox="0 0 40 30" fill="none" xmlns="http://www.w3.org/2000/svg">
<g filter="url(#filter0_d_1_63)">
<path d="M20 2.5L25.15 10.325L36.6667 11.5875L28.3333 17.675L30.3 26.275L20 22.2125L9.70001 26.275L11.6667 17.675L3.33334 11.5875L14.85 10.325L20 2.5Z" fill="#C8FF4D"/>
<path d="M20 2.5L25.15 10.325L36.6667 11.5875L28.3333 17.675L30.3 26.275L20 22.2125L9.70001 26.275L11.6667 17.675L3.33334 11.5875L14.85 10.325L20 2.5Z" stroke="#1E1E1E" stroke-width="2" stroke-linecap="round" stroke-linejoin="round"/>
<path d="M20 2.5L25.15 10.325L36.6667 11.5875L28.3333 17.675L30.3 26.275L20 22.2125L9.70001 26.275L11.6667 17.675L3.33334 11.5875L14.85 10.325L20 2.5Z" stroke="#3B1B6D" stroke-width="2" stroke-linecap="round" stroke-linejoin="round"/>
</g>
<defs>
<filter id="filter0_d_1_63" x="-13.6667" y="-8.5" width="67.3334" height="57.775" filterUnits="userSpaceOnUse" color-interpolation-filters="sRGB">
<feFlood flood-opacity="0" result="BackgroundImageFix"/>
<feColorMatrix in="SourceAlpha" type="matrix" values="0 0 0 0 0 0 0 0 0 0 0 0 0 0 0 0 0 0 127 0" result="hardAlpha"/>
<feOffset dy="6"/>
<feGaussianBlur stdDeviation="8"/>
<feComposite in2="hardAlpha" operator="out"/>
<feColorMatrix type="matrix" values="0 0 0 0 0 0 0 0 0 0 0 0 0 0 0 0 0 0 0.2 0"/>
<feBlend mode="normal" in2="BackgroundImageFix" result="effect1_dropShadow_1_63"/>
<feBlend mode="normal" in="SourceGraphic" in2="effect1_dropShadow_1_63" result="shape"/>
</filter>
</defs>
</svg>
